<svg width="16" height="17" viewBox="0 0 16 17" fill="none" xmlns="http://www.w3.org/2000/svg">
<path d="M5.3335 2.00122V4.00122" stroke="#5F6368" stroke-miterlimit="10" stroke-linecap="round" stroke-linejoin="round"/>
<path d="M10.6665 2.00122V4.00122" stroke="#5F6368" stroke-miterlimit="10" stroke-linecap="round" stroke-linejoin="round"/>
<path d="M10.6667 3.00122C12.8867 3.12122 14 3.96789 14 7.10122V11.2212C14 13.9679 13.3333 15.3412 10 15.3412H6C2.66667 15.3412 2 13.9679 2 11.2212V7.10122C2 3.96789 3.11333 3.12789 5.33333 3.00122H10.6667Z" stroke="#5F6368" stroke-miterlimit="10" stroke-linecap="round" stroke-linejoin="round"/>
<path d="M13.8332 12.4014H2.1665" stroke="#5F6368" stroke-width="1.5" stroke-miterlimit="10" stroke-linecap="round" stroke-linejoin="round"/>
<path d="M8.00016 6.16797C7.18016 6.16797 6.48683 6.61464 6.48683 7.4813C6.48683 7.89464 6.68016 8.20797 6.9735 8.40797C6.56683 8.64797 6.3335 9.03464 6.3335 9.48797C6.3335 10.3146 6.96683 10.828 8.00016 10.828C9.02683 10.828 9.66683 10.3146 9.66683 9.48797C9.66683 9.03464 9.4335 8.6413 9.02016 8.40797C9.32016 8.2013 9.50683 7.89464 9.50683 7.4813C9.50683 6.61464 8.82016 6.16797 8.00016 6.16797ZM8.00016 8.0613C7.6535 8.0613 7.40016 7.85464 7.40016 7.52797C7.40016 7.19464 7.6535 7.0013 8.00016 7.0013C8.34683 7.0013 8.60016 7.19464 8.60016 7.52797C8.60016 7.85464 8.34683 8.0613 8.00016 8.0613ZM8.00016 10.0013C7.56016 10.0013 7.24016 9.7813 7.24016 9.3813C7.24016 8.9813 7.56016 8.76797 8.00016 8.76797C8.44016 8.76797 8.76016 8.98797 8.76016 9.3813C8.76016 9.7813 8.44016 10.0013 8.00016 10.0013Z" fill="#5F6368"/>
</svg>
