<svg width="16" height="17" viewBox="0 0 16 17" fill="none" xmlns="http://www.w3.org/2000/svg">
<g opacity="0.4">
<path d="M5.78125 10.2213C5.78125 11.0813 6.44125 11.7746 7.26125 11.7746H8.93458C9.64792 11.7746 10.2279 11.1679 10.2279 10.4213C10.2279 9.60795 9.87458 9.32128 9.34792 9.13461L6.66125 8.20128C6.13458 8.01461 5.78125 7.72795 5.78125 6.91461C5.78125 6.16795 6.36125 5.56128 7.07458 5.56128H8.74792C9.56792 5.56128 10.2279 6.25461 10.2279 7.11461" stroke="#5F6368" stroke-linecap="round" stroke-linejoin="round"/>
<path d="M8 4.66797V12.668" stroke="#5F6368" stroke-linecap="round" stroke-linejoin="round"/>
</g>
<path d="M8.00016 15.3346C11.6821 15.3346 14.6668 12.3498 14.6668 8.66789C14.6668 4.98599 11.6821 2.00122 8.00016 2.00122C4.31826 2.00122 1.3335 4.98599 1.3335 8.66789C1.3335 12.3498 4.31826 15.3346 8.00016 15.3346Z" stroke="#5F6368" stroke-linecap="round" stroke-linejoin="round"/>
</svg>
