<svg width="291" height="153" viewBox="0 0 291 153" fill="none" xmlns="http://www.w3.org/2000/svg">
    <path d="M276.75 124.02C276.638 119.647 276.496 115.275 276.388 110.902C276.17 102.156 276.015 93.4087 275.91 84.6607C275.695 66.6797 275.657 48.6948 275.819 30.7138C275.865 25.6588 277.885 17.2378 271.946 14.7618C269.568 13.7708 266.82 13.8927 264.299 13.8447C259.711 13.7567 255.123 13.6758 250.535 13.5888C230.734 13.2138 210.931 12.9098 191.128 12.7008C181.504 12.5988 171.88 12.4917 162.255 12.3847C156.045 12.3157 147.123 10.8348 142.737 16.4558C142.301 17.0148 142.538 17.7098 142.978 18.0328C142.128 53.2728 142.63 88.5928 142.56 123.843C142.555 126.37 142.09 129.798 143.903 131.885C145.605 133.843 148.582 133.33 150.887 133.328C159.607 133.32 168.328 133.315 177.048 133.313C194.877 133.308 212.705 133.311 230.534 133.32C239.275 133.324 248.016 133.319 256.757 133.334C260.885 133.341 265.012 133.377 269.14 133.365C271.456 133.358 273.937 133.347 275.489 131.352C277.072 129.318 276.811 126.422 276.75 124.02ZM274.396 126.41C274.308 129.218 272.606 130.585 269.868 131.026C266.187 131.618 261.946 131.061 258.213 131.077C250.444 131.109 242.674 131.118 234.904 131.136C219.248 131.173 203.591 131.211 187.934 131.236C179.945 131.249 171.956 131.263 163.966 131.274C160.333 131.279 156.699 131.281 153.066 131.285C150.654 131.287 148.545 131.624 146.432 130.377C144.621 129.309 144.73 129.301 144.607 127.247C144.539 126.119 144.599 124.975 144.601 123.844C144.671 88.5328 145.315 53.1518 144.599 17.8478C144.596 17.7058 144.56 17.5867 144.507 17.4827C149.036 12.7517 158.581 14.5857 164.396 14.6397C172.099 14.7117 179.802 14.7988 187.505 14.9088C203.202 15.1318 218.9 15.2837 234.597 15.5257C242.324 15.6447 250.052 15.7647 257.779 15.9327C261.311 16.0097 264.954 15.8338 268.464 16.2448C271.262 16.5728 273.469 17.9347 273.634 20.9587C273.731 22.7407 273.594 24.5577 273.571 26.3407C273.369 42.1357 273.311 57.9308 273.443 73.7268C273.575 89.5218 273.852 105.316 274.262 121.106C274.307 122.866 274.452 124.649 274.396 126.41Z" fill="#3C3C3B"/>
    <path d="M89.1118 125.264C82.2018 127.274 75.3118 129.324 68.4018 131.334C62.2518 133.114 44.8718 138.684 44.2418 138.794C41.0718 139.364 39.7517 137.154 38.6417 134.614C36.8617 130.514 35.3818 126.284 34.0218 122.024C31.7018 114.734 29.7918 107.314 27.7818 99.9337C23.5418 84.3737 18.7317 68.8537 14.9817 53.1737C13.5417 47.1637 19.4118 46.5337 23.7518 45.3737C27.9818 44.2537 32.1918 43.1337 36.4118 41.9937L59.6017 35.7137C75.2917 31.4737 90.9818 27.2237 106.672 22.9837C108.432 22.5037 111.862 20.8737 113.692 21.3537C115.322 21.7837 116.772 24.3837 117.402 25.7137C117.912 26.7737 118.152 28.0337 118.522 29.1537C119.922 33.5037 121.342 37.8637 122.742 42.2237C125.542 50.9437 128.112 59.7337 130.942 68.4437C131.062 68.7937 131.292 68.9937 131.562 69.0837C131.572 74.2037 131.602 79.3237 131.642 84.4437C131.722 93.8837 131.732 103.344 131.902 112.794C117.632 116.924 103.372 121.104 89.1118 125.264ZM133.7 143.509L135.251 143.612C135.131 140.362 133.433 80.3437 133.653 54.0227C133.763 40.7427 133.983 27.4627 134.303 14.1827C134.363 11.3527 133.853 7.85275 134.673 5.13275C135.903 1.03275 141.423 2.35273 144.903 2.36273C151.443 2.37273 157.983 2.37275 164.523 2.38275C191.153 2.43275 217.793 2.64272 244.433 2.79272C250.883 2.82272 257.323 2.81275 263.773 2.94275C266.843 3.00275 269.913 3.09272 272.973 3.26272C275.883 3.42272 280.183 3.00273 282.823 4.30273C286.643 6.17273 286.423 10.6827 286.763 14.3227C287.063 17.6527 287.313 20.9827 287.523 24.3127C287.943 30.9827 288.173 37.6627 288.293 44.3427C288.773 73.5427 286.923 138.813 286.943 141.913C286.943 141.913 288.481 141.752 289.033 131.973C289.713 103.983 290.713 75.9227 290.493 47.9227C290.433 40.7627 290.243 33.6027 289.843 26.4627C289.493 20.3927 289.513 13.8227 288.093 7.89273C286.983 3.25273 283.703 2.04273 279.323 1.64273C272.513 1.03273 265.653 0.89273 258.813 0.83273C230.293 0.57273 201.763 0.562727 173.243 0.422727C165.973 0.382727 158.713 0.302724 151.443 0.232724C148.053 0.212724 144.663 0.172738 141.273 0.152738C139.183 0.142738 136.383 -0.277256 134.543 1.00274C130.853 3.57274 132.173 11.2027 132.093 14.9127C131.963 20.8127 131.853 26.7127 131.773 32.6127C130.643 27.6727 129.393 22.7627 128.073 17.8727C126.953 13.7127 125.723 8.85272 121.343 7.01272C116.413 4.95272 110.243 7.55273 105.433 8.77273C98.6128 10.4927 91.7928 12.2227 84.9928 13.9927C71.1528 17.5827 57.3628 21.3727 43.6828 25.5227C30.3528 29.5727 16.5927 33.5427 3.75274 38.9827C-0.597263 40.8227 0.62276 44.5727 1.43276 48.5427C2.81276 55.2927 4.93275 61.8627 7.14275 68.3727C11.7528 81.9727 16.3027 95.5827 20.5327 109.303C24.2127 121.213 27.4678 131.597 30.7778 143.607L33.9278 147.792C31.2278 137.842 28.4528 128.823 25.5228 118.943C21.9528 106.943 18.1927 95.0027 14.2627 83.1227C10.4227 71.5227 5.85275 60.0027 3.42275 48.0027C3.00275 45.9327 2.16275 43.8527 3.45275 42.0827C4.51275 40.6327 5.94274 40.3227 7.57274 39.6827C10.6327 38.5027 13.7128 37.3727 16.8028 36.2627C22.5228 34.1927 28.3128 32.3027 34.1128 30.4627C45.9528 26.7127 57.9128 23.3527 69.9028 20.1227C83.4828 16.4627 97.1227 13.0327 110.773 9.63275C114.053 8.82275 118.323 7.37273 121.463 9.30273C124.283 11.0427 125.103 14.7627 125.893 17.7327C127.793 24.8627 129.483 32.0427 131.263 39.2127C131.333 39.5027 131.493 39.6827 131.683 39.7927C131.603 47.6627 131.563 55.5427 131.563 63.4227C129.173 55.2027 126.563 47.0427 124.023 38.8727C122.593 34.2727 121.143 29.6727 119.633 25.0927C118.763 22.4827 118.013 19.8327 115.003 19.1527C111.723 18.4127 107.753 20.3027 104.663 21.1427C99.5127 22.5427 94.3627 23.9527 89.2127 25.3527L60.4127 33.1927C50.8127 35.8027 41.2128 38.4127 31.6228 41.0327C26.9428 42.3127 22.2328 43.5227 17.5928 44.9227C15.1228 45.6727 12.9427 46.6327 12.4727 49.4427C11.9427 52.6127 13.6727 56.3427 14.4727 59.3127C15.8527 64.4427 17.2927 69.5427 18.7027 74.6628C21.3127 84.2028 23.9228 93.7427 26.5528 103.283C29.3528 113.453 32.0527 123.693 35.9827 133.513C37.0827 136.263 38.0527 139.973 41.2827 140.873C43.7427 141.553 62.1128 135.223 68.9328 133.243C75.8428 131.223 82.7527 129.263 89.6627 127.263C103.763 123.173 117.863 119.113 131.953 114.993C132.052 119.494 133.7 143.509 133.7 143.509Z" fill="#3C3C3B"/>
    <path d="M81.4317 116.507C67.1027 109.614 53.3487 101.775 39.9517 93.2608C45.0747 95.1138 50.0727 97.7158 54.9637 99.7918C56.2927 100.356 57.6217 100.919 58.9507 101.483C64.3817 104.105 69.9398 106.459 75.6058 108.547C76.8198 108.994 77.2698 107.123 76.1308 106.643C71.3188 104.614 66.5048 102.589 61.6908 100.564C59.1388 99.3578 56.6158 98.0898 54.1158 96.7708C59.1968 97.9798 64.1948 99.4988 69.1078 101.312C70.2128 101.72 70.8848 100.007 69.8978 99.4388C66.6078 97.5448 63.2778 95.7318 59.9098 93.9898C62.1618 94.5658 64.4068 95.1708 66.6428 95.8228C67.7678 96.1508 68.5207 94.4618 67.4517 93.9048C65.7897 93.0378 64.1288 92.1688 62.4678 91.3018C64.4258 91.8228 66.3647 92.4268 68.2917 93.1128C69.2747 93.4628 70.1737 91.9868 69.3397 91.3138C67.9627 90.2018 66.5828 89.3898 64.9418 88.7208C64.2688 88.4468 63.8058 88.8958 63.7028 89.4538C61.0488 88.7518 58.3608 88.2028 55.6268 87.7778C54.5528 87.6108 53.6987 89.0788 54.8267 89.6758C55.8767 90.2318 56.9318 90.7798 57.9838 91.3318C55.7968 90.7938 53.6037 90.2808 51.3997 89.8118C50.2857 89.5748 49.4217 91.2208 50.5767 91.7628C53.5098 93.1388 56.4138 94.5658 59.2928 96.0418C55.5678 95.0218 51.7998 94.1578 47.9868 93.4428C47.4288 93.3388 46.9708 93.6778 46.7978 94.1098C42.6978 92.2968 38.5308 90.6018 34.2558 89.6448C33.1838 89.4048 32.6338 90.7728 33.5228 91.3828C42.9868 97.8748 52.8418 103.812 62.9488 109.275C51.7618 104.631 40.7578 99.5438 30.0088 93.9588C28.8968 93.3808 28.0997 94.8728 29.0507 95.5978C38.1577 102.539 48.0068 108.282 58.1308 113.534C50.0528 110.385 41.9748 107.233 33.9118 104.048C32.9808 103.68 32.4538 105.123 33.2508 105.616C41.5748 110.766 50.0337 115.674 58.6327 120.335C52.6327 117.75 46.7618 114.808 40.1058 114.374C39.1238 114.31 38.7458 115.781 39.6038 116.228C44.1628 118.605 48.7268 120.971 53.2968 123.327C49.4928 122.089 45.7428 120.69 42.0398 119.131C41.2278 118.789 40.6008 120.022 41.1998 120.574C44.8818 123.961 48.9788 126.526 53.6378 128.358C54.3758 128.648 54.9178 127.38 54.1818 127.067C51.5318 125.94 49.0687 124.568 46.7697 122.937C51.8007 124.887 56.9418 126.526 62.1808 127.866C63.2058 128.128 63.9048 126.636 62.9188 126.115C57.3478 123.175 51.7568 120.273 46.1608 117.38C53.9338 119.508 60.9408 124.281 68.9748 125.768C69.9678 125.952 70.7318 124.555 69.7088 124.028C60.7688 119.429 51.9468 114.606 43.2558 109.556C54.9068 114.153 66.5418 118.792 78.1958 123.378C79.1788 123.765 79.8748 122.121 78.9188 121.663C65.9388 115.451 52.9438 109.153 40.8118 101.43C53.8268 107.675 67.1037 113.324 80.6867 118.268C81.7077 118.638 82.4167 116.98 81.4317 116.507Z" fill="#3C3C3B"/>
    <path d="M199.643 115.691C190.747 105.273 182.407 94.4368 174.359 83.3738C180.859 90.3968 187.347 97.4308 193.845 104.455C194.834 105.524 196.25 103.982 195.404 102.896C192.645 99.3538 189.892 95.8068 187.176 92.2318C189.197 94.2958 191.264 96.3158 193.381 98.2888C194.455 99.2898 195.894 97.7958 194.972 96.6978C194.769 96.4568 194.572 96.2108 194.37 95.9688C195.254 96.8808 196.887 95.6028 196.17 94.5048C194.091 91.3228 192.011 88.1398 189.932 84.9578C190.883 85.8388 191.833 86.7208 192.785 87.6018C193.81 88.5498 195.293 87.3648 194.681 86.1388C193.888 84.5508 193.095 82.9638 192.302 81.3758C193.224 81.5158 194.241 80.5968 193.57 79.6368C192.526 78.1428 191.406 77.4898 189.564 77.3818C188.59 77.3248 188.14 78.4338 188.522 79.1978C188.888 79.9308 189.254 80.6638 189.62 81.3968C187.903 79.8118 186.186 78.2258 184.468 76.6408C183.511 75.7568 181.816 76.9068 182.591 78.0888C183.371 79.2778 184.152 80.4668 184.932 81.6558C182.674 79.0768 180.415 76.4988 178.166 73.9128C177.306 72.9238 175.647 74.2108 176.351 75.3128C177.869 77.6888 179.442 80.0288 181.057 82.3378C178.208 79.0478 175.475 75.6558 172.867 72.1518C172.026 71.0218 170.125 72.0468 170.929 73.2848C173.821 77.7398 176.87 82.0808 180.005 86.3588C174.87 80.8428 169.743 75.3188 164.644 69.7708C163.835 68.8908 162.272 70.0548 162.966 71.0658C172.004 84.2288 181.504 97.1058 191.697 109.404C177.94 97.0878 168.128 80.6268 155.063 67.6158C154.218 66.7748 153.124 67.8358 153.53 68.7988C160.577 85.4978 173.871 97.9268 185.384 111.576C180.603 107.415 176.024 103.026 171.688 98.3918C168.486 94.9698 165.423 91.4258 162.495 87.7678C159.906 84.5338 157.278 81.4588 153.408 79.7728C152.563 79.4048 151.415 80.2168 152.02 81.1608C160.011 93.6228 168.775 105.543 178.264 116.885C168.467 108.332 160.113 98.1898 151.982 88.0588C151.271 87.1728 149.906 88.3068 150.442 89.2468C155.946 98.9018 162.116 108.111 168.875 116.89C162.978 111.356 157.081 105.823 151.184 100.289C150.4 99.5528 149.229 100.477 149.716 101.422C153.068 107.927 157.263 113.836 161.749 119.552C158.516 116.929 155.284 114.304 152.051 111.679C151.406 111.155 150.178 111.866 150.781 112.659C150.823 112.714 150.866 112.768 150.908 112.822L150.909 112.823C154.062 116.953 157.365 120.969 160.641 125.001C160.91 125.332 161.483 124.894 161.236 124.542C159.46 122.008 157.689 119.469 155.892 116.948C159.663 120.073 163.432 123.2 167.21 126.316C168.12 127.067 169.232 125.942 168.496 125.03C163.516 118.861 158.53 112.653 154.393 105.892C162.434 113.487 170.474 121.081 178.515 128.676C179.459 129.568 180.763 128.229 179.927 127.263C172.563 118.751 165.803 109.749 159.632 100.35C167.412 109.483 175.647 118.172 185.493 125.206C186.486 125.915 187.466 124.422 186.735 123.596C175.665 111.095 165.491 97.8478 156.269 83.9338C158.552 85.8228 160.399 88.2218 162.317 90.5548C165.171 94.0278 168.115 97.4198 171.198 100.692C177.511 107.394 184.326 113.588 191.541 119.304C192.354 119.948 193.886 119.088 193.136 118.073C181.881 102.83 166.98 90.0858 157.918 73.3468C171.508 87.9928 181.824 105.562 198.426 117.263C199.414 117.959 200.337 116.503 199.643 115.691Z" fill="#3C3C3B"/>
    <path d="M133.303 144.379C146.777 144.109 160.246 143.997 173.711 144.054C180.444 144.043 187.175 144.13 193.906 144.161L214.098 144.381L254.47 145.031C261.195 145.118 267.927 145.267 274.638 145.216C276.313 145.21 277.998 145.199 279.645 145.095C280.039 145.056 280.501 145.058 280.842 144.984L281.369 144.89C281.556 144.836 281.757 144.737 281.95 144.663C282.729 144.34 283.514 144.034 284.254 143.685C284.994 143.336 285.675 142.929 286.159 142.318C286.642 141.705 286.947 140.927 287.207 140.14C287.741 138.561 288.13 136.912 288.556 135.285C288.276 136.948 288.04 138.612 287.642 140.269C287.435 141.091 287.175 141.933 286.664 142.689C286.145 143.448 285.369 143.977 284.621 144.391C283.864 144.812 283.1 145.169 282.347 145.542C282.154 145.632 281.981 145.734 281.771 145.813L281.069 146.007C280.592 146.134 280.203 146.146 279.765 146.221C278.062 146.444 276.38 146.566 274.692 146.686C267.946 147.089 261.21 147.257 254.471 147.372C247.733 147.514 240.997 147.503 234.261 147.526L214.057 147.379L193.859 146.993C187.128 146.8 180.396 146.652 173.666 146.386C160.207 145.933 146.752 145.268 133.303 144.379Z" fill="#3C3C3B"/>
    <path d="M31.5417 143.488C32.5877 145.521 34.0027 147.351 35.6877 148.799C36.5287 149.525 37.4577 150.131 38.4427 150.582C39.4017 151.049 40.5088 151.34 41.4918 151.407C42.3958 151.404 43.5848 151.124 44.6488 150.891C45.7428 150.619 46.8368 150.345 47.9278 150.026C50.1108 149.413 52.2968 148.769 54.4738 148.1C58.8228 146.736 63.1838 145.389 67.5228 143.969L80.5648 139.774L93.6237 135.61C97.9907 134.261 102.336 132.845 106.714 131.526C115.452 128.831 124.213 126.2 133.061 123.807C124.62 127.381 116.062 130.632 107.457 133.746C103.164 135.33 98.8308 136.799 94.5108 138.308C90.1778 139.778 85.8298 141.205 81.4798 142.628C72.7508 145.386 63.9987 148.08 55.1017 150.344C52.8727 150.895 50.6498 151.468 48.3878 151.926C47.2628 152.169 46.1208 152.372 44.9778 152.571C43.7958 152.724 42.7268 152.966 41.3418 152.862C40.0708 152.652 38.9558 152.223 37.9068 151.606C36.8648 151.006 35.9148 150.265 35.1168 149.397C33.4978 147.69 32.3017 145.65 31.5417 143.488Z" fill="#3C3C3B"/>
</svg>
