<svg width="25" height="24" viewBox="0 0 25 24" fill="none" xmlns="http://www.w3.org/2000/svg">
<path d="M11.3 7.2001C11.3 9.18832 9.68824 10.8001 7.70001 10.8001C5.71179 10.8001 4.10001 9.18832 4.10001 7.2001C4.10001 5.21187 5.71179 3.6001 7.70001 3.6001C9.68824 3.6001 11.3 5.21187 11.3 7.2001Z" fill="#FF5F5F"/>
<path d="M20.9 7.2001C20.9 9.18832 19.2882 10.8001 17.3 10.8001C15.3118 10.8001 13.7 9.18832 13.7 7.2001C13.7 5.21187 15.3118 3.6001 17.3 3.6001C19.2882 3.6001 20.9 5.21187 20.9 7.2001Z" fill="#FF5F5F"/>
<path d="M16.015 20.4001C16.071 20.0082 16.1 19.6075 16.1 19.2001C16.1 17.2379 15.4272 15.4328 14.2997 14.003C15.1823 13.4924 16.207 13.2001 17.3 13.2001C20.6137 13.2001 23.3 15.8864 23.3 19.2001V20.4001H16.015Z" fill="#FF5F5F"/>
<path d="M7.70001 13.2001C11.0137 13.2001 13.7 15.8864 13.7 19.2001V20.4001H1.70001V19.2001C1.70001 15.8864 4.3863 13.2001 7.70001 13.2001Z" fill="#FF5F5F"/>
</svg>
