<svg width="25" height="24" viewBox="0 0 25 24" fill="none" xmlns="http://www.w3.org/2000/svg">
<path d="M2.90002 4.8001C2.90002 4.13736 3.43728 3.6001 4.10002 3.6001H6.50002C7.16277 3.6001 7.70002 4.13736 7.70002 4.8001V19.2001C7.70002 19.8628 7.16277 20.4001 6.50002 20.4001H4.10002C3.43728 20.4001 2.90002 19.8628 2.90002 19.2001V4.8001Z" fill="#FF5F5F"/>
<path d="M10.1 4.8001C10.1 4.13736 10.6373 3.6001 11.3 3.6001H13.7C14.3628 3.6001 14.9 4.13736 14.9 4.8001V19.2001C14.9 19.8628 14.3628 20.4001 13.7 20.4001H11.3C10.6373 20.4001 10.1 19.8628 10.1 19.2001V4.8001Z" fill="#FF5F5F"/>
<path d="M18.5 3.6001C17.8373 3.6001 17.3 4.13736 17.3 4.8001V19.2001C17.3 19.8628 17.8373 20.4001 18.5 20.4001H20.9C21.5628 20.4001 22.1 19.8628 22.1 19.2001V4.8001C22.1 4.13736 21.5628 3.6001 20.9 3.6001H18.5Z" fill="#FF5F5F"/>
</svg>
