<svg width="296" height="44" viewBox="0 0 296 44" fill="none" xmlns="http://www.w3.org/2000/svg">
<g clip-path="url(#clip0_160_52)">
<path d="M40.388 12.9562C41.2376 11.5129 41.6624 10.7912 42.3544 10.3956C43.0463 10 43.8838 10 45.5586 10H47.9927C52.6512 10 54.9805 10 55.8443 11.511C56.7082 13.022 55.5266 15.0293 53.1633 19.0438L46.0992 31.0438C45.2496 32.4871 44.8247 33.2088 44.1328 33.6044C43.4408 34 42.6034 34 40.9286 34H38.4945C33.836 34 31.5067 34 30.6428 32.489C29.779 30.978 30.9606 28.9707 33.3239 24.9562L40.388 12.9562Z" fill="#3C3C3B"/>
<path d="M24.9106 12.5258C25.5106 11.5064 25.8107 10.9968 26.2482 10.6497C26.4857 10.4613 26.7503 10.3101 27.033 10.201C27.5541 10 28.1455 10 29.3284 10C32.5897 10 34.2203 10 35.0821 10.7953C35.5357 11.2138 35.8491 11.762 35.9797 12.3652C36.2278 13.5113 35.4006 14.9166 33.7461 17.7271L25.6535 31.4742C25.0535 32.4936 24.7534 33.0032 24.3159 33.3503C24.0785 33.5387 23.8139 33.6899 23.5311 33.799C23.01 34 22.4186 34 21.2357 34C17.9745 34 16.3438 34 15.482 33.2047C15.0284 32.7862 14.715 32.238 14.5844 31.6348C14.3363 30.4887 15.1635 29.0834 16.818 26.2729L24.9106 12.5258Z" fill="#3C3C3B"/>
<path d="M13.3849 11.8943C13.6225 11.4906 13.7414 11.2887 13.8793 11.1176C14.353 10.5297 15.031 10.1421 15.778 10.032C15.9954 10 16.2297 10 16.6982 10C17.9816 10 18.6232 10 19.0512 10.1305C20.569 10.5936 21.4637 12.1585 21.0927 13.7013C20.9881 14.1363 20.6626 14.6893 20.0115 15.7953L10.41 32.1057C10.1723 32.5094 10.0535 32.7113 9.91559 32.8824C9.44184 33.4703 8.76384 33.8579 8.0169 33.968C7.79946 34 7.5652 34 7.09668 34C5.81332 34 5.17163 34 4.7437 33.8695C3.2259 33.4065 2.33119 31.8415 2.70217 30.2987C2.80676 29.8637 3.13229 29.3107 3.78334 28.2047L13.3849 11.8943Z" fill="#3C3C3B"/>
</g>
<path d="M72.336 11.06C74.2347 11.06 75.8773 11.4227 77.264 12.148C78.6507 12.852 79.824 13.8973 80.784 15.284L78.48 17.492C77.6693 16.2547 76.752 15.3693 75.728 14.836C74.7253 14.2813 73.5307 14.004 72.144 14.004C71.12 14.004 70.2773 14.1427 69.616 14.42C68.9547 14.6973 68.464 15.0707 68.144 15.54C67.8453 15.988 67.696 16.5 67.696 17.076C67.696 17.7373 67.92 18.3133 68.368 18.804C68.8373 19.2947 69.7013 19.6787 70.96 19.956L75.248 20.916C77.296 21.364 78.7467 22.0467 79.6 22.964C80.4533 23.8813 80.88 25.044 80.88 26.452C80.88 27.7533 80.528 28.884 79.824 29.844C79.12 30.804 78.1387 31.54 76.88 32.052C75.6427 32.564 74.1813 32.82 72.496 32.82C71.0027 32.82 69.6587 32.628 68.464 32.244C67.2693 31.86 66.224 31.3373 65.328 30.676C64.432 30.0147 63.696 29.2573 63.12 28.404L65.488 26.036C65.936 26.7827 66.5013 27.4547 67.184 28.052C67.8667 28.628 68.656 29.076 69.552 29.396C70.4693 29.716 71.4827 29.876 72.592 29.876C73.5733 29.876 74.416 29.7587 75.12 29.524C75.8453 29.2893 76.3893 28.948 76.752 28.5C77.136 28.0307 77.328 27.476 77.328 26.836C77.328 26.2173 77.1147 25.6733 76.688 25.204C76.2827 24.7347 75.5147 24.372 74.384 24.116L69.744 23.06C68.464 22.7827 67.408 22.388 66.576 21.876C65.744 21.364 65.1253 20.7453 64.72 20.02C64.3147 19.2733 64.112 18.4413 64.112 17.524C64.112 16.3293 64.432 15.252 65.072 14.292C65.7333 13.3107 66.6827 12.532 67.92 11.956C69.1573 11.3587 70.6293 11.06 72.336 11.06ZM84.5473 32.5V9.3H87.9713V19.06C88.5046 18.0573 89.2193 17.332 90.1153 16.884C91.0326 16.4147 92.0459 16.18 93.1553 16.18C94.2859 16.18 95.2993 16.404 96.1953 16.852C97.1126 17.2787 97.8379 17.9293 98.3713 18.804C98.9046 19.6787 99.1713 20.788 99.1713 22.132V32.5H95.7473V23.22C95.7473 21.6413 95.4166 20.5427 94.7553 19.924C94.1153 19.3053 93.3046 18.996 92.3233 18.996C91.6406 18.996 90.9579 19.1667 90.2753 19.508C89.6139 19.828 89.0593 20.3613 88.6113 21.108C88.1846 21.8333 87.9713 22.8147 87.9713 24.052V32.5H84.5473ZM110.664 16.18C112.221 16.18 113.597 16.5107 114.792 17.172C115.986 17.8333 116.914 18.7933 117.576 20.052C118.258 21.2893 118.6 22.772 118.6 24.5C118.6 26.228 118.258 27.7213 117.576 28.98C116.914 30.2173 115.986 31.1667 114.792 31.828C113.597 32.4893 112.221 32.82 110.664 32.82C109.106 32.82 107.73 32.4893 106.536 31.828C105.341 31.1667 104.402 30.2173 103.72 28.98C103.037 27.7213 102.696 26.228 102.696 24.5C102.696 22.772 103.037 21.2893 103.72 20.052C104.402 18.7933 105.341 17.8333 106.536 17.172C107.73 16.5107 109.106 16.18 110.664 16.18ZM110.664 18.868C109.704 18.868 108.882 19.092 108.2 19.54C107.538 19.9667 107.026 20.596 106.664 21.428C106.301 22.26 106.12 23.284 106.12 24.5C106.12 25.6947 106.301 26.7187 106.664 27.572C107.026 28.404 107.538 29.044 108.2 29.492C108.882 29.9187 109.704 30.132 110.664 30.132C111.624 30.132 112.434 29.9187 113.096 29.492C113.757 29.044 114.269 28.404 114.632 27.572C114.994 26.7187 115.176 25.6947 115.176 24.5C115.176 23.284 114.994 22.26 114.632 21.428C114.269 20.596 113.757 19.9667 113.096 19.54C112.434 19.092 111.624 18.868 110.664 18.868ZM126.721 11.796V27.7C126.721 28.4893 126.923 29.0653 127.329 29.428C127.755 29.7907 128.321 29.972 129.025 29.972C129.601 29.972 130.102 29.8867 130.529 29.716C130.955 29.524 131.35 29.268 131.713 28.948L132.481 31.444C131.99 31.8707 131.382 32.212 130.657 32.468C129.953 32.7027 129.163 32.82 128.289 32.82C127.371 32.82 126.529 32.6707 125.761 32.372C124.993 32.0733 124.395 31.5933 123.969 30.932C123.542 30.2493 123.318 29.364 123.297 28.276V12.756L126.721 11.796ZM132.225 16.5V19.188H120.225V16.5H132.225ZM143.672 32.82C142.733 32.82 141.869 32.6387 141.08 32.276C140.312 31.9133 139.661 31.412 139.128 30.772C138.595 30.1107 138.2 29.3747 137.944 28.564L138.36 28.02L138.104 32.5H135.096V9.3H138.52V20.532L138.136 19.988C138.541 18.8787 139.235 17.972 140.216 17.268C141.197 16.5427 142.381 16.18 143.768 16.18C145.048 16.18 146.221 16.5107 147.288 17.172C148.376 17.8333 149.229 18.7827 149.848 20.02C150.467 21.2573 150.776 22.7613 150.776 24.532C150.776 26.26 150.456 27.7427 149.816 28.98C149.197 30.2173 148.344 31.1667 147.256 31.828C146.189 32.4893 144.995 32.82 143.672 32.82ZM142.936 30.068C144.323 30.068 145.4 29.5773 146.168 28.596C146.957 27.5933 147.352 26.228 147.352 24.5C147.352 22.772 146.968 21.4173 146.2 20.436C145.432 19.4547 144.355 18.964 142.968 18.964C142.072 18.964 141.293 19.1987 140.632 19.668C139.971 20.116 139.448 20.756 139.064 21.588C138.701 22.42 138.52 23.412 138.52 24.564C138.52 25.6947 138.701 26.676 139.064 27.508C139.427 28.3187 139.939 28.948 140.6 29.396C141.283 29.844 142.061 30.068 142.936 30.068ZM167.973 16.5L160.965 34.388C160.495 35.6253 159.983 36.6067 159.429 37.332C158.895 38.0573 158.277 38.58 157.573 38.9C156.869 39.22 156.047 39.38 155.109 39.38C154.341 39.38 153.626 39.2733 152.965 39.06C152.325 38.868 151.759 38.6013 151.269 38.26L152.101 35.604C152.506 35.9453 152.933 36.2013 153.381 36.372C153.85 36.5427 154.351 36.628 154.885 36.628C155.461 36.628 155.973 36.468 156.421 36.148C156.89 35.8493 157.306 35.2413 157.669 34.324L158.373 32.596L156.677 28.628L151.685 16.5H155.525L159.077 26.548L160.005 29.556L161.061 26.26L164.421 16.5H167.973ZM170.254 39.22V16.5H173.294L173.55 20.98L173.102 20.436C173.358 19.604 173.752 18.868 174.286 18.228C174.819 17.588 175.48 17.0867 176.27 16.724C177.08 16.3613 177.966 16.18 178.926 16.18C180.227 16.18 181.411 16.5107 182.478 17.172C183.544 17.8333 184.387 18.7827 185.006 20.02C185.624 21.236 185.934 22.7187 185.934 24.468C185.934 26.2173 185.614 27.7213 184.974 28.98C184.355 30.2173 183.502 31.1667 182.414 31.828C181.347 32.4893 180.152 32.82 178.83 32.82C177.464 32.82 176.302 32.468 175.342 31.764C174.382 31.0387 173.699 30.1213 173.294 29.012L173.678 28.468V39.22H170.254ZM178.094 30.036C179.48 30.036 180.558 29.5453 181.326 28.564C182.115 27.5827 182.51 26.228 182.51 24.5C182.51 22.772 182.126 21.4173 181.358 20.436C180.59 19.4333 179.523 18.932 178.158 18.932C177.262 18.932 176.472 19.1667 175.79 19.636C175.128 20.084 174.606 20.724 174.222 21.556C173.859 22.3667 173.678 23.348 173.678 24.5C173.678 25.6307 173.859 26.612 174.222 27.444C174.584 28.276 175.096 28.916 175.758 29.364C176.419 29.812 177.198 30.036 178.094 30.036ZM196.62 16.18C198.177 16.18 199.553 16.5107 200.748 17.172C201.943 17.8333 202.871 18.7933 203.532 20.052C204.215 21.2893 204.556 22.772 204.556 24.5C204.556 26.228 204.215 27.7213 203.532 28.98C202.871 30.2173 201.943 31.1667 200.748 31.828C199.553 32.4893 198.177 32.82 196.62 32.82C195.063 32.82 193.687 32.4893 192.492 31.828C191.297 31.1667 190.359 30.2173 189.676 28.98C188.993 27.7213 188.652 26.228 188.652 24.5C188.652 22.772 188.993 21.2893 189.676 20.052C190.359 18.7933 191.297 17.8333 192.492 17.172C193.687 16.5107 195.063 16.18 196.62 16.18ZM196.62 18.868C195.66 18.868 194.839 19.092 194.156 19.54C193.495 19.9667 192.983 20.596 192.62 21.428C192.257 22.26 192.076 23.284 192.076 24.5C192.076 25.6947 192.257 26.7187 192.62 27.572C192.983 28.404 193.495 29.044 194.156 29.492C194.839 29.9187 195.66 30.132 196.62 30.132C197.58 30.132 198.391 29.9187 199.052 29.492C199.713 29.044 200.225 28.404 200.588 27.572C200.951 26.7187 201.132 25.6947 201.132 24.5C201.132 23.284 200.951 22.26 200.588 21.428C200.225 20.596 199.713 19.9667 199.052 19.54C198.391 19.092 197.58 18.868 196.62 18.868ZM208.224 32.5V16.5H211.136L211.456 19.38C211.882 18.3347 212.512 17.5453 213.344 17.012C214.197 16.4573 215.242 16.18 216.48 16.18C216.8 16.18 217.12 16.212 217.44 16.276C217.76 16.3187 218.026 16.3933 218.24 16.5L217.76 19.508C217.525 19.4227 217.258 19.3587 216.96 19.316C216.682 19.252 216.298 19.22 215.808 19.22C215.146 19.22 214.496 19.4013 213.856 19.764C213.216 20.1053 212.682 20.628 212.256 21.332C211.85 22.036 211.648 22.932 211.648 24.02V32.5H208.224ZM224.724 11.796V27.7C224.724 28.4893 224.927 29.0653 225.332 29.428C225.759 29.7907 226.324 29.972 227.028 29.972C227.604 29.972 228.106 29.8867 228.532 29.716C228.959 29.524 229.354 29.268 229.716 28.948L230.484 31.444C229.994 31.8707 229.386 32.212 228.66 32.468C227.956 32.7027 227.167 32.82 226.292 32.82C225.375 32.82 224.532 32.6707 223.764 32.372C222.996 32.0733 222.399 31.5933 221.972 30.932C221.546 30.2493 221.322 29.364 221.3 28.276V12.756L224.724 11.796ZM230.228 16.5V19.188H218.228V16.5H230.228ZM242.317 22.228C242.317 21.1613 242.018 20.34 241.421 19.764C240.845 19.1667 240.045 18.868 239.021 18.868C238.061 18.868 237.239 19.092 236.557 19.54C235.874 19.988 235.373 20.7133 235.053 21.716L232.173 20.5C232.578 19.1987 233.367 18.1533 234.541 17.364C235.735 16.5747 237.271 16.18 239.149 16.18C240.429 16.18 241.559 16.3933 242.541 16.82C243.522 17.2253 244.29 17.844 244.845 18.676C245.421 19.508 245.709 20.5747 245.709 21.876V29.012C245.709 29.8013 246.103 30.196 246.893 30.196C247.277 30.196 247.65 30.1427 248.013 30.036L247.821 32.404C247.33 32.6387 246.711 32.756 245.965 32.756C245.282 32.756 244.663 32.6387 244.109 32.404C243.575 32.148 243.149 31.7747 242.829 31.284C242.53 30.772 242.381 30.1427 242.381 29.396V29.172L243.085 29.14C242.893 29.972 242.498 30.6653 241.901 31.22C241.303 31.7533 240.61 32.1587 239.821 32.436C239.031 32.692 238.231 32.82 237.421 32.82C236.418 32.82 235.511 32.66 234.701 32.34C233.911 32.02 233.282 31.54 232.813 30.9C232.365 30.2387 232.141 29.428 232.141 28.468C232.141 27.2733 232.525 26.292 233.293 25.524C234.082 24.756 235.191 24.2333 236.621 23.956L242.829 22.74L242.797 25.14L238.285 26.068C237.389 26.2387 236.717 26.484 236.269 26.804C235.821 27.124 235.597 27.5933 235.597 28.212C235.597 28.8093 235.821 29.2893 236.269 29.652C236.738 29.9933 237.357 30.164 238.125 30.164C238.658 30.164 239.17 30.1 239.661 29.972C240.173 29.844 240.631 29.6413 241.037 29.364C241.442 29.0653 241.751 28.692 241.965 28.244C242.199 27.7747 242.317 27.22 242.317 26.58V22.228ZM259.255 32.82C258.316 32.82 257.452 32.6387 256.663 32.276C255.895 31.9133 255.244 31.412 254.711 30.772C254.177 30.1107 253.783 29.3747 253.527 28.564L253.943 28.02L253.687 32.5H250.679V9.3H254.103V20.532L253.719 19.988C254.124 18.8787 254.817 17.972 255.799 17.268C256.78 16.5427 257.964 16.18 259.351 16.18C260.631 16.18 261.804 16.5107 262.871 17.172C263.959 17.8333 264.812 18.7827 265.431 20.02C266.049 21.2573 266.359 22.7613 266.359 24.532C266.359 26.26 266.039 27.7427 265.399 28.98C264.78 30.2173 263.927 31.1667 262.839 31.828C261.772 32.4893 260.577 32.82 259.255 32.82ZM258.519 30.068C259.905 30.068 260.983 29.5773 261.751 28.596C262.54 27.5933 262.935 26.228 262.935 24.5C262.935 22.772 262.551 21.4173 261.783 20.436C261.015 19.4547 259.937 18.964 258.551 18.964C257.655 18.964 256.876 19.1987 256.215 19.668C255.553 20.116 255.031 20.756 254.647 21.588C254.284 22.42 254.103 23.412 254.103 24.564C254.103 25.6947 254.284 26.676 254.647 27.508C255.009 28.3187 255.521 28.948 256.183 29.396C256.865 29.844 257.644 30.068 258.519 30.068ZM273.429 9.3V28.02C273.429 28.8093 273.568 29.3533 273.845 29.652C274.122 29.9507 274.581 30.1 275.221 30.1C275.605 30.1 275.925 30.0787 276.181 30.036C276.458 29.972 276.8 29.8653 277.205 29.716L276.821 32.276C276.458 32.4467 276.042 32.5747 275.573 32.66C275.104 32.7667 274.634 32.82 274.165 32.82C272.736 32.82 271.68 32.4573 270.997 31.732C270.336 30.9853 270.005 29.844 270.005 28.308V9.3H273.429ZM286.47 32.82C284.87 32.82 283.462 32.4893 282.246 31.828C281.03 31.1667 280.08 30.2173 279.398 28.98C278.736 27.7213 278.406 26.228 278.406 24.5C278.406 22.772 278.736 21.2893 279.398 20.052C280.08 18.7933 281.019 17.8333 282.214 17.172C283.408 16.5107 284.763 16.18 286.278 16.18C287.835 16.18 289.158 16.5 290.246 17.14C291.334 17.78 292.166 18.6547 292.742 19.764C293.318 20.8733 293.606 22.132 293.606 23.54C293.606 23.924 293.595 24.2867 293.574 24.628C293.552 24.9693 293.52 25.268 293.478 25.524H280.614V22.9H291.974L290.278 23.412C290.278 21.9613 289.915 20.852 289.19 20.084C288.464 19.2947 287.472 18.9 286.214 18.9C285.296 18.9 284.496 19.1133 283.814 19.54C283.131 19.9667 282.608 20.6067 282.246 21.46C281.883 22.292 281.702 23.316 281.702 24.532C281.702 25.7267 281.894 26.74 282.278 27.572C282.662 28.404 283.206 29.0333 283.91 29.46C284.614 29.8867 285.446 30.1 286.406 30.1C287.472 30.1 288.336 29.8973 288.998 29.492C289.659 29.0867 290.182 28.5213 290.566 27.796L293.286 29.076C292.902 29.844 292.379 30.516 291.718 31.092C291.078 31.6467 290.31 32.0733 289.414 32.372C288.518 32.6707 287.536 32.82 286.47 32.82Z" fill="#3C3C3B"/>
<defs>
<clipPath id="clip0_160_52">
<rect width="58" height="24" fill="white" transform="translate(0 10)"/>
</clipPath>
</defs>
</svg>
