<svg width="150" height="51" viewBox="0 0 150 51" fill="none" xmlns="http://www.w3.org/2000/svg">
<path d="M47.3076 4.44876C46.1597 4.45009 45.2286 3.52256 45.2232 2.37236C45.2177 1.20769 46.1521 0.270468 47.319 0.270233C48.4698 0.269999 49.4076 1.2127 49.4047 2.36674C49.4017 3.52382 48.4713 4.44743 47.3076 4.44876ZM47.7089 2.39082C47.7089 3.02241 47.7089 3.61623 47.7089 4.2117C48.2529 4.15634 48.9434 3.5723 49.0275 3.11842C48.5982 2.88152 48.1656 2.64281 47.7089 2.39082ZM49.111 2.93859C49.1313 2.90012 49.1462 2.88128 49.1517 2.86009C49.2929 2.31802 49.2127 1.80989 48.9205 1.33248C48.8666 1.24436 48.814 1.25281 48.7373 1.30027C48.4431 1.48205 48.1455 1.65868 47.8502 1.83866C47.7448 1.90277 47.6419 1.9708 47.5094 2.05524C48.0621 2.36009 48.5842 2.64805 49.111 2.93859ZM47.1209 2.67784C46.5619 2.3701 46.0404 2.083 45.5254 1.79949C45.4994 1.82318 45.4873 1.8292 45.4836 1.83858C45.4731 1.86509 45.4644 1.89253 45.458 1.92028C45.3601 2.34398 45.3992 2.75453 45.578 3.15133C45.7394 3.50966 45.74 3.51044 46.067 3.31419C46.4064 3.1106 46.7446 2.90513 47.1209 2.67784ZM47.5 2.68003C46.9468 3.01482 46.4344 3.32491 45.9032 3.64641C46.329 4.08074 46.813 4.2784 47.3845 4.26925C47.4904 4.26753 47.5005 4.20177 47.5 4.11827C47.4984 3.81264 47.4998 3.507 47.5 3.20137C47.5001 3.04273 47.5 2.88409 47.5 2.68003ZM48.7057 1.0905C48.4388 0.697765 47.6287 0.359371 47.2114 0.465079C47.1722 0.475009 47.1293 0.563047 47.1282 0.615745C47.1208 0.960861 47.1244 1.30621 47.1244 1.65148C47.1244 1.76915 47.1244 1.88675 47.1244 2.04758C47.678 1.71247 48.1914 1.40176 48.7057 1.0905ZM45.5629 1.5937C46.0215 1.84632 46.4593 2.08761 46.9136 2.33788C46.9136 1.70465 46.9136 1.1109 46.9136 0.494943C46.2847 0.650613 45.8535 1.00878 45.5629 1.5937Z" fill="white"/>
<path d="M31.4213 6.37579H18.56C18.3332 6.37579 18.1494 6.55961 18.1494 6.78635C18.1494 7.01309 18.3332 7.19691 18.56 7.19691H31.4971C49.1557 7.19691 50.5168 28.7782 36.0847 32.8615C35.0092 33.1649 33.8444 33.3702 32.5949 33.4639C32.0906 33.5041 31.5774 33.5219 31.0464 33.5219H25.0486C22.3487 33.5219 21.3 33.223 21.3 30.224V16.5297C21.3 15.6128 20.5482 14.8181 19.6328 14.8708C19.2325 14.8938 18.8745 15.0665 18.609 15.3278C18.3234 15.6134 18.1493 16.0106 18.1493 16.4434V49.7213C18.1493 50.0604 18.0958 50.3728 17.9976 50.6584C18.6223 50.7075 19.2471 50.7298 19.8718 50.7298C20.4029 50.7298 20.9295 50.712 21.4516 50.6807C21.3535 50.3906 21.2999 50.0694 21.2999 49.7212V34.4233H31.0463C31.6889 34.4233 32.3181 34.4054 32.9296 34.3653C34.1434 34.2894 35.2902 34.1377 36.3747 33.919C55.1758 30.1393 53.721 6.37579 31.4213 6.37579Z" fill="white"/>
<path d="M44.5147 2.35941H21.599C7.94782 2.35941 3.52543 6.93364 3.52543 13.0073C3.52543 20.4331 10.0498 22.834 17.0249 24.8556L18.1495 25.1501L19.8721 25.6053C20.3495 25.7436 20.827 25.8865 21.3001 26.0292C26.2938 27.551 30.8278 29.4386 32.595 33.464C32.7199 33.7496 32.8359 34.053 32.9297 34.3654C33.2198 35.2847 33.376 36.3111 33.376 37.458C33.376 44.8035 27.82 48.9448 21.3001 49.6454C20.6352 49.7213 19.9569 49.757 19.2741 49.757C18.8993 49.757 18.5244 49.7481 18.1495 49.7213C13.8163 49.4758 9.36707 47.8023 5.97103 44.616C5.77916 44.4419 5.59175 44.259 5.40871 44.0716C5.40426 44.0671 5.39534 44.0582 5.39089 44.0537C1.31205 39.899 0.0759197 34.5036 0.00445717 34.1735C5.34476e-07 34.16 0 34.1556 0 34.1556V49.6811C0 49.6811 0.419468 45.0444 3.00338 45.5755C3.00784 45.5755 3.00784 45.5755 3.01229 45.5799C3.76202 45.6602 4.717 46.0351 5.97103 46.6778C6.43515 46.9143 6.94391 47.191 7.49731 47.5079L7.42592 47.4319C10.6301 49.3553 14.3252 50.3996 17.9979 50.6585C18.6227 50.7076 19.2474 50.7299 19.8722 50.7299C20.4033 50.7299 20.9299 50.712 21.452 50.6808C29.5918 50.1408 36.674 45.4506 36.674 36.7841C36.674 35.7443 36.5713 34.7938 36.375 33.9191C36.2947 33.5532 36.2009 33.2006 36.0849 32.8615C34.1571 27.0109 27.7487 24.985 21.3002 23.3427C20.2426 23.0704 19.1849 22.8116 18.1496 22.5483C11.4735 20.8436 5.55155 18.9291 5.55155 12.784C5.55155 7.45569 9.5992 3.18044 21.5992 3.18044H44.5148C44.7416 3.18044 44.9254 2.99663 44.9254 2.76989C44.9252 2.54322 44.7414 2.35941 44.5147 2.35941Z" fill="white"/>
<path d="M16.0267 8.0144C15.2626 8.01526 14.6427 7.39783 14.6392 6.63215C14.6355 5.85677 15.2576 5.23291 16.0344 5.23276C16.8005 5.2326 17.4247 5.86012 17.4228 6.62839C17.4207 7.3986 16.8014 8.01347 16.0267 8.0144ZM16.2939 6.64434C16.2939 7.06475 16.2939 7.46014 16.2939 7.85647C16.6561 7.81964 17.1157 7.43082 17.1717 7.12863C16.8859 6.97108 16.5979 6.81213 16.2939 6.64434ZM17.2272 7.009C17.2408 6.98336 17.2507 6.97085 17.2544 6.95678C17.3483 6.59594 17.2949 6.25763 17.1005 5.93988C17.0646 5.88124 17.0296 5.88687 16.9785 5.91838C16.7827 6.03941 16.5846 6.157 16.388 6.27679C16.3179 6.31948 16.2493 6.36474 16.1612 6.42096C16.529 6.62393 16.8766 6.81565 17.2272 7.009ZM15.9025 6.83543C15.5303 6.63058 15.1832 6.43949 14.8404 6.25075C14.8231 6.26654 14.815 6.27053 14.8125 6.27679C14.8056 6.29446 14.7997 6.31268 14.7955 6.33121C14.7303 6.6133 14.7564 6.88656 14.8754 7.15068C14.9829 7.38922 14.9832 7.38969 15.2009 7.25904C15.4268 7.12347 15.652 6.9868 15.9025 6.83543ZM16.1549 6.83691C15.7866 7.05982 15.4455 7.26623 15.0919 7.48023C15.3754 7.76937 15.6975 7.90095 16.078 7.89485C16.1485 7.89376 16.1552 7.84998 16.1549 7.79439C16.1538 7.59095 16.1547 7.38751 16.1549 7.18399C16.1549 7.07836 16.1549 6.97272 16.1549 6.83691ZM16.9574 5.77874C16.7798 5.51728 16.2404 5.29203 15.9626 5.3624C15.9365 5.36904 15.908 5.4276 15.9073 5.46271C15.9024 5.69242 15.9048 5.92237 15.9048 6.15216C15.9048 6.2305 15.9048 6.30876 15.9048 6.4158C16.2733 6.19281 16.6151 5.98593 16.9574 5.77874ZM14.8653 6.11368C15.1705 6.28186 15.462 6.44246 15.7644 6.60908C15.7644 6.18757 15.7644 5.79226 15.7644 5.38225C15.3458 5.48592 15.0588 5.72431 14.8653 6.11368Z" fill="white"/>
<path d="M76.3685 47.253C72.4922 47.2574 69.3479 44.1253 69.3297 40.2413C69.3112 36.3082 72.4665 33.1436 76.407 33.1428C80.293 33.142 83.4598 36.3254 83.4498 40.2224C83.4398 44.1293 80.2982 47.2485 76.3685 47.253ZM77.7236 40.3036C77.7236 42.4362 77.7236 44.4418 77.7236 46.4524C79.5608 46.2655 81.8923 44.2933 82.1763 42.7605C80.7269 41.9607 79.2659 41.1545 77.7236 40.3036ZM82.4582 42.1533C82.5268 42.0233 82.577 41.9599 82.5957 41.8882C83.0722 40.0577 82.8015 38.3418 81.815 36.7298C81.6328 36.4321 81.4552 36.4608 81.1961 36.6208C80.2025 37.2348 79.198 37.8312 78.2004 38.4388C77.8448 38.6554 77.4973 38.8851 77.0497 39.1702C78.9164 40.1998 80.6794 41.1722 82.4582 42.1533ZM75.7382 41.2726C73.8505 40.2335 72.0894 39.264 70.3504 38.3067C70.2626 38.3868 70.2218 38.4072 70.2093 38.4388C70.1739 38.5282 70.1444 38.6209 70.1227 38.7148C69.7921 40.1456 69.9242 41.5319 70.528 42.8718C71.0733 44.0817 71.0752 44.0844 72.1796 43.4216C73.3253 42.734 74.4675 42.0403 75.7382 41.2726ZM77.0185 41.2801C75.1501 42.4107 73.4201 43.4577 71.6261 44.5434C73.0641 46.0101 74.6984 46.6776 76.6283 46.6467C76.9862 46.641 77.02 46.4189 77.0185 46.1369C77.013 45.1049 77.0178 44.0728 77.0185 43.0407C77.0187 42.505 77.0185 41.9693 77.0185 41.2801ZM81.0896 35.9125C80.1885 34.5861 77.4529 33.4435 76.0436 33.8005C75.9113 33.834 75.7665 34.1315 75.7626 34.3093C75.7377 35.4746 75.75 36.6408 75.75 37.8067C75.75 38.204 75.75 38.6012 75.75 39.1442C77.6192 38.0129 79.3529 36.9636 81.0896 35.9125ZM70.4769 37.6118C72.0253 38.4649 73.504 39.2797 75.0379 40.1248C75.0379 37.9864 75.0379 35.9815 75.0379 33.9014C72.9144 34.4272 71.4583 35.6366 70.4769 37.6118Z" fill="white"/>
<path d="M59.712 22.5224C57.551 22.5224 55.6821 21.6658 54.4945 19.5827L56.8502 18.0836C57.551 19.4853 58.6802 20.0888 59.8678 20.0888C61.1332 20.0888 61.912 19.4659 61.912 18.5314C61.912 17.1686 60.4713 16.7403 58.797 16.312C56.6944 15.7669 55.3511 14.5403 55.3511 12.4767C55.3511 10.0237 57.2785 8.40777 60.1598 8.40777C62.2819 8.40777 63.6447 9.34226 64.657 10.9387L62.3208 12.3793C61.6589 11.328 61.0359 10.8413 60.0235 10.8413C58.9333 10.8413 58.1351 11.4254 58.1351 12.3404C58.1351 13.3528 59.1085 13.6837 60.2961 14.0536C61.8925 14.5598 64.696 15.2607 64.696 18.3756C64.696 20.8481 62.8075 22.5224 59.712 22.5224ZM66.0912 22.2693V8.64139H68.8167V14.1315H74.4626V8.64139H77.1882V22.2693H74.4626V16.5845H68.8167V22.2693H66.0912ZM85.7528 22.5224C81.7033 22.5224 78.6468 19.3685 78.6468 15.4748C78.6468 11.5617 81.7033 8.3883 85.7528 8.3883C89.7828 8.3883 92.8198 11.5617 92.8198 15.4748C92.8198 19.3685 89.7828 22.5224 85.7528 22.5224ZM81.4697 15.4748C81.4697 17.9473 83.1051 19.9915 85.7528 19.9915C88.381 19.9915 89.9969 17.9473 89.9969 15.4748C89.9969 13.0023 88.381 10.9192 85.7528 10.9192C83.1051 10.9192 81.4697 13.0023 81.4697 15.4748ZM96.3768 22.2693V11.0944H92.4831V8.64139H102.996V11.0944H99.1024V22.2693H96.3768ZM107.367 22.2693V8.64139H111.961C114.92 8.64139 116.517 10.1015 116.517 12.2236C116.517 13.528 115.991 14.4625 114.317 15.0855C116.536 15.6111 117.276 16.8181 117.276 18.5119C117.276 20.7897 115.407 22.2693 112.448 22.2693H107.367ZM110.092 19.8163H112.195C113.674 19.8163 114.512 19.2712 114.512 18.0836C114.512 17.0907 113.674 16.4872 112.195 16.4872H110.092V19.8163ZM110.092 14.2678H111.708C113.188 14.2678 113.752 13.7421 113.752 12.6519C113.752 11.7174 113.188 11.0749 111.708 11.0749H110.092V14.2678ZM120.501 22.2693V16.7987L115.887 8.64139H118.886L121.027 12.5546C121.358 13.1775 121.767 13.8784 121.942 14.5403C122.137 13.8784 122.487 13.197 122.818 12.5546L124.862 8.64139H127.841L123.227 16.8571V22.2693H120.501Z" fill="white"/>
<path d="M55.2732 46.1944V32.5665H59.8678C62.9243 32.5665 64.7933 34.0071 64.7933 36.869C64.7933 39.7503 62.9243 41.2494 59.8678 41.2494H57.9988V46.1944H55.2732ZM57.9988 38.7964H59.712C61.1916 38.7964 62.0288 38.1929 62.0288 36.8885C62.0288 35.6036 61.1916 35 59.712 35H57.9988V38.7964ZM88.1263 46.1944V32.5665L92.5261 32.547C95.5827 32.5275 97.4517 34.0266 97.4517 36.6938C97.4517 38.8548 96.2446 40.1786 94.181 40.6264L97.9968 46.1944H94.7845L91.8837 41.8724C91.689 41.5804 91.5332 41.2883 91.358 40.8795H90.8518V46.1944H88.1263ZM90.8518 38.4265H92.3704C93.85 38.4265 94.6871 37.823 94.6871 36.7133C94.6871 35.623 93.85 35.0195 92.3704 35.0195H90.8518V38.4265ZM102.061 46.1944V35.0195H98.1677V32.5665H108.681V35.0195H104.787V46.1944H102.061ZM106.632 46.1944L112.2 32.5665H114.555L120.104 46.1944H117.145L116.21 43.6051H110.525L109.591 46.1944H106.632ZM111.421 41.2494H115.315L113.854 37.5309C113.66 37.0248 113.485 36.4991 113.368 35.9735C113.231 36.4991 113.076 37.0442 112.881 37.5309L111.421 41.2494ZM120.713 46.1944V32.5665H125.308C128.267 32.5665 129.863 34.0266 129.863 36.1487C129.863 37.4531 129.338 38.3875 127.663 39.0105C129.883 39.5362 130.623 40.7432 130.623 42.437C130.623 44.7148 128.754 46.1944 125.794 46.1944H120.713ZM123.439 43.7414H125.541C127.021 43.7414 127.858 43.1963 127.858 42.0087C127.858 41.0158 127.021 40.4123 125.541 40.4123H123.439V43.7414ZM123.439 38.1929H125.055C126.534 38.1929 127.099 37.6672 127.099 36.577C127.099 35.6425 126.534 35 125.055 35H123.439V38.1929ZM131.892 46.1944V32.5665H134.618V43.7414H139.699V46.1944H131.892ZM141.151 46.1944V32.5665H149.133V35.0195H143.877V38.076H149.036V40.4512H143.877V43.7414H149.172V46.1944H141.151Z" fill="white"/>
</svg>
