<svg width="24" height="24" viewBox="0 0 24 24" fill="none" xmlns="http://www.w3.org/2000/svg">
<path fill-rule="evenodd" clip-rule="evenodd" d="M21.6 11.9999C21.6 17.3018 17.302 21.5999 12 21.5999C6.69809 21.5999 2.40002 17.3018 2.40002 11.9999C2.40002 6.69797 6.69809 2.3999 12 2.3999C17.302 2.3999 21.6 6.69797 21.6 11.9999ZM19.2 11.9999C19.2 13.191 18.9108 14.3146 18.3987 15.3042L16.5692 13.4747C16.7191 13.0101 16.8 12.5144 16.8 11.9999C16.8 11.6055 16.7525 11.2223 16.6628 10.8556L18.5381 8.98022C18.963 9.89856 19.2 10.9215 19.2 11.9999ZM13.0015 16.6953L14.8988 18.5926C14.0119 18.9831 13.0313 19.1999 12 19.1999C10.9217 19.1999 9.89869 18.9628 8.98034 18.538L10.8557 16.6626C11.2224 16.7523 11.6057 16.7999 12 16.7999C12.3435 16.7999 12.6785 16.7638 13.0015 16.6953ZM7.38971 13.3404C7.26622 12.915 7.20002 12.4652 7.20002 11.9999C7.20002 11.6016 7.24854 11.2146 7.33998 10.8446L7.24539 10.9392L5.40736 9.10113C5.01684 9.98802 4.80002 10.9686 4.80002 11.9999C4.80002 13.1445 5.06712 14.2268 5.54239 15.1877L7.38971 13.3404ZM8.69569 5.60123C9.68531 5.08915 10.8089 4.7999 12 4.7999C13.1447 4.7999 14.2269 5.067 15.1878 5.54227L13.3405 7.38958C12.9151 7.2661 12.4653 7.1999 12 7.1999C11.4855 7.1999 10.9899 7.28086 10.5252 7.43074L8.69569 5.60123ZM14.4 11.9999C14.4 13.3254 13.3255 14.3999 12 14.3999C10.6745 14.3999 9.60002 13.3254 9.60002 11.9999C9.60002 10.6744 10.6745 9.5999 12 9.5999C13.3255 9.5999 14.4 10.6744 14.4 11.9999Z" fill="#FF5F5F"/>
</svg>
