<svg width="712" height="381" viewBox="0 0 712 381" fill="none" xmlns="http://www.w3.org/2000/svg">
<path d="M173.678 288.373H161.07V362.737H173.678V288.373Z" fill="#DDD"/>
<path d="M198.748 318.045H186.136V362.736H198.748V318.045Z" fill="#DDD"/>
<path d="M198.748 298.369H186.136V343.061H198.748V298.369Z" fill="#DDD"/>
<path d="M329.606 320.716H321.033V362.735H329.606V320.716Z" fill="#DDD"/>
<path d="M295.112 318.142H286.539V362.737H295.112V318.142Z" fill="#DDD"/>
<path d="M277.752 295.205H264.085V351.356H277.752V295.205Z" fill="#DDD"/>
<path d="M318.809 286.232H304.612V351.356H318.809V286.232Z" fill="#DDD"/>
<path d="M146.149 363.67V297.867L129.63 289.308V363.67H146.149Z" fill="#DDD"/>
<path d="M99.7991 320.716H85.9404V366.66H99.7991V320.716Z" fill="#DDD"/>
<path d="M127.344 320.716H118.742V366.66H127.344V320.716Z" fill="#DDD"/>
<path d="M71.4434 308.384H62.8397V366.66H71.4434V308.384Z" fill="#DDD"/>
<path d="M79.2448 300.008H74.9421V351.777H79.2448V300.008Z" fill="#DDD"/>
<path d="M97.2061 290.962H92.9051V342.733H97.2061V290.962Z" fill="#DDD"/>
<path d="M40.6359 351.622H29.4289V378.142H40.6359V351.622Z" fill="#DDD"/>
<path d="M51.2599 341.513H44.7489V359.889H51.2599V341.513Z" fill="#DDD"/>
<path d="M62.9139 351.622H55.9561V378.142H62.9139V351.622Z" fill="#DDD"/>
<path d="M17.7043 344.501H10.7465V378.142H17.7043V344.501Z" fill="#DDD"/>
<path d="M24.0117 339.666H20.5336V369.55H24.0117V339.666Z" fill="#DDD"/>
<path d="M43.0237 329.765H39.5439V370.192H43.0237V329.765Z" fill="#DDD"/>
<path d="M173.677 300.008H148.457V362.735H173.677V300.008Z" fill="#DDD"/>
<path d="M475.948 239.094H463.578V358.95H475.948V239.094Z" fill="#DDD"/>
<path d="M520.045 231.958H507.671V358.95H520.045V231.958Z" fill="#DDD"/>
<path d="M450.266 202.427H434.059V358.95H450.266V202.427Z" fill="#DDD"/>
<path d="M553.271 132.275H534.521V354.352H553.271V132.275Z" fill="#DDD"/>
<path d="M545.319 66.1348H542.971V285.557H545.319V66.1348Z" fill="#DDD"/>
<path d="M428.639 229.993H405.956V353.778H428.639V229.993Z" fill="#DDD"/>
<path d="M468.726 256.165H443.988V356.148H468.726V256.165Z" fill="#DDD"/>
<path d="M504.785 275.791H480.042V358.95H504.785V275.791Z" fill="#DDD"/>
<path d="M543.854 269.635H443.988V350.716H543.854V269.635Z" fill="#DDD"/>
<path d="M325.319 327.163H118.742V376.394H325.319V327.163Z" fill="#DDD"/>
<path d="M503.469 251.905H495.829V324.841H503.469V251.905Z" fill="#DDD"/>
<path d="M595.228 254.225H582.75V367.395H595.228V254.225Z" fill="#DDD"/>
<path d="M436.92 301.197H428.435V367.395H436.92V301.197Z" fill="#DDD"/>
<path d="M471.057 297.453H462.574V367.395H471.057V297.453Z" fill="#DDD"/>
<path d="M453.17 251.113H439.12V345.685H453.17V251.113Z" fill="#DDD"/>
<path d="M625.005 223.042H608.657V367.395H625.005V223.042Z" fill="#DDD"/>
<path d="M661.856 246.485H638.973V351.751H661.856V246.485Z" fill="#DDD"/>
<path d="M282.041 365.444V264.374L269.563 260.792V365.444H282.041Z" fill="#DDD"/>
<path d="M266.385 254.225H253.905V367.395H266.385V254.225Z" fill="#DDD"/>
<path d="M300.486 226.769H284.138V370.032H300.486V226.769Z" fill="#DDD"/>
<path d="M239.302 358.301H222.956V226.867L239.302 212.542V358.301Z" fill="#DDD"/>
<path d="M348.2 257.228H325.318V362.484H348.2V257.228Z" fill="#DDD"/>
<path d="M645.109 305.185H314.122V359.501H645.109V305.185Z" fill="#DDD"/>
<path d="M386.883 141.789C386.883 140.57 386.036 139.429 384.566 138.441C386.036 136.721 386.883 134.737 386.883 132.621C386.883 129.67 385.246 126.978 382.551 124.903V121.602C382.551 119.291 378.571 117.334 373.078 116.675V73.7292C374.632 72.9011 375.648 71.6244 375.648 70.1769C375.648 68.3965 374.125 66.8714 371.929 66.133V40.9965H370.8V31.6906H370.171V0H367.823V31.6906H367.193V40.9965H366.06V66.133C363.863 66.8714 362.343 68.3982 362.343 70.1769C362.343 71.6244 363.36 72.8994 364.914 73.7292V116.675C359.421 117.334 355.436 119.291 355.436 121.602V124.903C352.743 126.978 351.107 129.67 351.107 132.621C351.107 134.737 351.956 136.721 353.421 138.441C351.956 139.429 351.107 140.57 351.107 141.789C351.107 144.802 356.229 147.353 363.332 148.255C362.497 253.503 352.337 380.396 352.337 380.396H368.992H385.651C385.651 380.396 375.495 253.503 374.655 148.255C381.757 147.353 386.883 144.802 386.883 141.789Z" fill="#DDD"/>
<path d="M348.257 335.047H174.943V380.396H348.257V335.047Z" fill="#DDD"/>
<path d="M347.477 357.392C346.382 326.752 308.354 302.139 261.601 302.139C214.847 302.139 176.82 326.754 175.724 357.392H347.477Z" fill="#DDD"/>
<path d="M319.537 343.142C311.332 327.244 288.497 315.806 261.599 315.806C234.701 315.806 211.866 327.244 203.661 343.142H319.537Z" fill="#DDD"/>
<path d="M368.929 313.118H341.423V380.396H368.929V313.118Z" fill="#DDD"/>
<path d="M452.093 280.918H427.308V380.397H452.093V280.918Z" fill="#DDD"/>
<path d="M414.475 380.397H389.688V280.918L414.475 266.043V380.397Z" fill="#DDD"/>
<path d="M491.84 275.888H454.477V380.397H491.84V275.888Z" fill="#DDD"/>
<path d="M528.922 296.68H500.429V380.395H528.922V296.68Z" fill="#DDD"/>
<path d="M632.044 275.888H594.681V380.397H632.044V275.888Z" fill="#DDD"/>
<path d="M677.176 266.83H640.632V380.396H677.176V266.83Z" fill="#DDD"/>
<path d="M565.149 320.162H536.655V380.396H565.149V320.162Z" fill="#DDD"/>
<path d="M589.633 305.066H569.86V380.396H589.633V305.066Z" fill="#DDD"/>
<path d="M691.935 292.553H680.028V380.396H691.935V292.553Z" fill="#DDD"/>
<path d="M396.989 325.191H365.908V380.396H396.989V325.191Z" fill="#DDD"/>
<path d="M465.639 332.57H434.554V380.397H465.639V332.57Z" fill="#DDD"/>
<path d="M507.385 323.885H476.3V380.397H507.385V323.885Z" fill="#DDD"/>
<path d="M542.095 348.538H511.013V380.396H542.095V348.538Z" fill="#DDD"/>
<path d="M581.894 355.248H558.55V380.397H581.894V355.248Z" fill="#DDD"/>
<path d="M606.351 335.047H583.007V380.397H606.351V335.047Z" fill="#DDD"/>
<path d="M646.602 329.765H623.252V380.397H646.602V329.765Z" fill="#DDD"/>
<path d="M701.945 302.548H696.53V380.397H701.945V302.548Z" fill="#DDD"/>
<path d="M708.779 320.576H703.363V377.771H708.779V320.576Z" fill="#DDD"/>
<path d="M713.112 337.916H707.7V377.772H713.112V337.916Z" fill="#DDD"/>
<path d="M715.819 345.248H710.404V377.772H715.819V345.248Z" fill="#DDD"/>
<path d="M138.742 262.887V258.477H136.27V254.55H134.572V251.573H117.574V254.55H115.876V258.477H113.406V262.887H111.444V380.397H140.7V262.887H138.742Z" fill="#DDD"/>
<path d="M576.416 216.659V210.516H573.471V205.048H571.455V200.894H551.218V205.048H549.197V210.516H546.254V216.659H543.918V380.397H578.745V216.659H576.416Z" fill="#DDD"/>
<path d="M157.225 324.089H136.945V380.396H157.225V324.089Z" fill="#DDD"/>
<path d="M95.0545 340.454H79.2428V380.395H95.0545V340.454Z" fill="#DDD"/>
<path d="M108.644 314.21H97.6716V380.396H108.644V314.21Z" fill="#DDD"/>
<path d="M174.668 305.066H154.896V380.396H174.668V305.066Z" fill="#DDD"/>
<path d="M87.8672 355.23H70.6201V380.396H87.8672V355.23Z" fill="#DDD"/>
<path d="M724.872 355.248H41.2826V380.397H724.872V355.248Z" fill="#DDD"/>
<path d="M89.0852 335.047H65.7411V380.397H89.0852V335.047Z" fill="#DDD"/>
<path d="M28.1816 356.293H19.5779V380.397H28.1816V356.293Z" fill="#DDD"/>
<path d="M35.5741 340.454H29.6049V380.395H35.5741V340.454Z" fill="#DDD"/>
<path d="M24.9329 353.031H12.2301V380.395H24.9329V353.031Z" fill="#DDD"/>
<path d="M49.3863 366.66H0.00177002V380.397H49.3863V366.66Z" fill="#DDD"/>
<path d="M129.336 329.765H105.989V380.397H129.336V329.765Z" fill="#DDD"/>
<path d="M184.676 329.765H161.332V380.397H184.676V329.765Z" fill="#DDD"/>
<path d="M439.702 338.61H408.621V380.397H439.702V338.61Z" fill="#DDD"/>
</svg>
